<?xml version="1.0" encoding="iso-8859-1"?>
<!-- Generator: Adobe Illustrator 19.0.0, SVG Export Plug-In . SVG Version: 6.00 Build 0)  -->
<svg version="1.1" id="Capa_1" xmlns="http://www.w3.org/2000/svg" xmlns:xlink="http://www.w3.org/1999/xlink" x="0px" y="0px"
	 viewBox="0 0 512.002 512.002" style="enable-background:new 0 0 512.002 512.002;" xml:space="preserve">
<path style="fill:#401F18;" d="M249.876,40c-4.143,0-7.5,3.358-7.5,7.5v20h15v-20C257.376,43.358,254.019,40,249.876,40z"/>
<g>
	<path style="fill:#632B21;" d="M221.11,47.641c-3.588,2.071-4.816,6.658-2.745,10.245l10,17.321l12.99-7.5l-10-17.321
		C229.284,46.799,224.697,45.57,221.11,47.641z"/>
	<path style="fill:#632B21;" d="M200.017,68.641c-2.071,3.588-0.842,8.174,2.745,10.245l17.321,10l7.5-12.99l-17.321-10
		C206.675,63.825,202.088,65.054,200.017,68.641z"/>
	<path style="fill:#632B21;" d="M192.251,97.375c0,4.143,3.358,7.5,7.5,7.5h20v-15h-20
		C195.609,89.875,192.251,93.232,192.251,97.375z"/>
</g>
<g>
	<path style="fill:#401F18;" d="M307.251,97.626c0-4.143-3.358-7.5-7.5-7.5h-20v15h20
		C303.893,105.126,307.251,101.768,307.251,97.626z"/>
	<path style="fill:#401F18;" d="M299.61,68.859c-2.071-3.588-6.658-4.816-10.245-2.745l-17.32,10l7.5,12.99l17.32-10
		C300.452,77.033,301.681,72.446,299.61,68.859z"/>
	<path style="fill:#401F18;" d="M278.61,47.766c-3.588-2.071-8.174-0.842-10.245,2.745l-10,17.321l12.99,7.5l10-17.321
		C283.426,54.424,282.197,49.838,278.61,47.766z"/>
</g>
<path style="fill:#84473C;" d="M249.876,52.5v90c24.853,0,45-20.147,45-45S274.729,52.5,249.876,52.5z"/>
<path style="fill:#8D584E;" d="M264.876,97.5c0-24.853-6.716-45-15-45c-24.853,0-45,20.147-45,45s20.147,45,45,45
	C258.161,142.5,264.876,122.353,264.876,97.5z"/>
<path style="fill:#84473C;" d="M284.751,207.5h10c42.37,0,78.509-27.17,91.923-65h-16.106c-12.641,29.375-41.862,50-75.817,50h-10
	C280.608,192.5,280.608,207.5,284.751,207.5z"/>
<path style="fill:#8FDBFD;" d="M212.251,396.032v93.063l-24.872,8.29c-3.93,1.31-6.053,5.558-4.743,9.487
	c1.048,3.143,3.974,5.13,7.114,5.13c0.786,0,1.586-0.125,2.373-0.387l30-10c3.063-1.021,5.128-3.887,5.128-7.115v-98.468
	L212.251,396.032L212.251,396.032z"/>
<g>
	<path style="fill:#1CB9FD;" d="M312.123,497.385l-24.872-8.29V306.032h-15V494.5c0,3.229,2.065,6.095,5.128,7.115l30,10
		c0.787,0.262,1.587,0.387,2.373,0.387c3.14,0,6.066-1.987,7.114-5.13C318.176,502.942,316.053,498.694,312.123,497.385z"/>
	<path style="fill:#1CB9FD;" d="M249.751,262.5v75c24.853,0,45-20.147,45-45L249.751,262.5z"/>
</g>
<path style="fill:#8FDBFD;" d="M264.751,292.5l-15-30l-45,30c0,24.853,20.147,45,45,45C258.035,337.5,264.751,317.353,264.751,292.5
	z"/>
<path style="fill:#8DC051;" d="M274.751,172.5h-30l20,120h30v-100C294.751,181.454,285.797,172.5,274.751,172.5z"/>
<path style="fill:#C3D251;" d="M244.751,172.5l-40,20v100h60v-100C264.751,181.454,255.797,172.5,244.751,172.5z"/>
<polygon style="fill:#FDC0AB;" points="159.751,258.9 219.751,442.5 249.751,442.5 249.751,330.9 "/>
<polygon style="fill:#FDDFD3;" points="69.751,330.9 69.751,442.5 219.751,442.5 219.751,258.9 "/>
<polygon style="fill:#E34339;" points="219.751,172.5 189.751,251.7 219.751,330.9 249.751,330.9 249.751,172.5 "/>
<rect x="69.75" y="172.5" style="fill:#F06449;" width="150" height="158.4"/>
<g>
	<path style="fill:#555555;" d="M219.751,379.2h-120c-4.143,0-7.5-3.357-7.5-7.5s3.357-7.5,7.5-7.5h120c4.143,0,7.5,3.357,7.5,7.5
		S223.894,379.2,219.751,379.2z"/>
	<path style="fill:#555555;" d="M219.751,409.2h-120c-4.143,0-7.5-3.357-7.5-7.5s3.357-7.5,7.5-7.5h120c4.143,0,7.5,3.357,7.5,7.5
		S223.894,409.2,219.751,409.2z"/>
</g>
<path style="fill:#8D584E;" d="M79.751,210h-20c-4.143,0-7.5-3.357-7.5-7.5s3.357-7.5,7.5-7.5h20c4.143,0,7.5,3.357,7.5,7.5
	S83.894,210,79.751,210z"/>
<g>
	<path style="fill:#FACF2A;" d="M384.751,72.5h-37.5c-20.678,0-37.5-16.822-37.5-37.5V7.5c0-4.143,3.357-7.5,7.5-7.5h75v15h-67.5v20
		c0,12.406,10.094,22.5,22.5,22.5h37.5V72.5z"/>
	<path style="fill:#FACF2A;" d="M422.251,72.5h-37.5c-4.143,0-7.5-3.357-7.5-7.5s3.357-7.5,7.5-7.5h37.5
		c12.406,0,22.5-10.094,22.5-22.5V15h-52.5c-4.143,0-7.5-3.357-7.5-7.5s3.357-7.5,7.5-7.5h60c4.143,0,7.5,3.357,7.5,7.5V35
		C459.751,55.678,442.929,72.5,422.251,72.5z"/>
	<path style="fill:#FACF2A;" d="M409.751,130h-17.5V82.5h-15V130h-17.5c-4.143,0-7.5,3.357-7.5,7.5s3.357,7.5,7.5,7.5h50
		c4.143,0,7.5-3.357,7.5-7.5S413.894,130,409.751,130z"/>
	<path style="fill:#FACF2A;" d="M392.251,7.5l-7.5,95c20.711,0,37.5-16.789,37.5-37.5s0-57.5,0-57.5H392.251z"/>
</g>
<path style="fill:#FDE855;" d="M392.251,65c0-20.711,0-65,0-65h-45c0,0,0,44.289,0,65s16.789,37.5,37.5,37.5
	C388.893,102.5,392.251,85.711,392.251,65z"/>
<g>
</g>
<g>
</g>
<g>
</g>
<g>
</g>
<g>
</g>
<g>
</g>
<g>
</g>
<g>
</g>
<g>
</g>
<g>
</g>
<g>
</g>
<g>
</g>
<g>
</g>
<g>
</g>
<g>
</g>
</svg>
